<?xml version="1.0"?>
<svg width="640" height="480" xmlns="http://www.w3.org/2000/svg" xmlns:svg="http://www.w3.org/2000/svg">
 <!-- Created with SVG-edit - http://svg-edit.googlecode.com/ -->
 <g>
  <title>Layer 1</title>
  <rect id="svg_3" height="234" width="486" y="94" x="76.600006" stroke-linecap="null" stroke-linejoin="null" stroke-dasharray="null" stroke-width="5" stroke="#000000" fill="#ffffff"/>
  <path id="svg_1" d="m189.529221,234.651062q36.584366,25.125458 73.083084,0m-65.154358,-49.622742c0,-3.884003 3.147339,-7.032394 7.03096,-7.032394c3.88266,0 7.031067,3.148392 7.031067,7.032394c0,3.882431 -3.148407,7.031113 -7.031067,7.031113c-3.883621,0 -7.03096,-3.148682 -7.03096,-7.031113m43.248886,0c0,-3.884003 3.147263,-7.032394 7.031097,-7.032394c3.882355,0 7.030899,3.148392 7.030899,7.032394c0,3.882431 -3.148544,7.031113 -7.030899,7.031113c-3.883835,0 -7.031097,-3.148682 -7.031097,-7.031113m-82.091858,20.186508l0,0c0,-37.278519 30.220093,-67.498291 67.498611,-67.498291c37.278503,0 67.49826,30.219772 67.49826,67.498291c0,37.278381 -30.219757,67.498306 -67.49826,67.498306c-37.278519,0 -67.498611,-30.219925 -67.498611,-67.498306zm0,0l0,0c0,-37.278519 30.220093,-67.498291 67.498611,-67.498291c37.278503,0 67.49826,30.219772 67.49826,67.498291c0,37.278381 -30.219757,67.498306 -67.49826,67.498306c-37.278519,0 -67.498611,-30.219925 -67.498611,-67.498306z" stroke-width="5" stroke="#000000" fill="#ffff00"/>
  <polygon stroke-width="5" stroke="#000000" points="394.3999938964844,148.73756408691406 409.8381652832031,193.15118408203125 456.84869384765625,194.10919189453125 419.37945556640625,222.51632690429688 432.9953918457031,267.52203369140625 394.3999938964844,240.66497802734375 355.8045959472656,267.52203369140625 369.4205322265625,222.51632690429688 331.9512939453125,194.10919189453125 378.9618225097656,193.15118408203125 394.3999938964844,148.73756408691406 409.8381652832031,193.15118408203125 " strokeWidth="5" strokecolor="#000000" fill="#000000" orient="point" r2="26.264975" r="65.662436" point="5" shape="star" id="svg_2" cy="269.399994" cx="383.399994"/>
 </g>
</svg>